<svg width="50" height="50" viewBox="0 0 50 50" fill="none" xmlns="http://www.w3.org/2000/svg">
<g clip-path="url(#clip0_250_117)">
<path d="M25 0C11.1929 0 0 11.1954 0 25.001C0 38.8087 11.1929 50 25 50C38.8071 50 50 38.8087 50 25.001C50 11.1954 38.8061 0 25 0ZM31.6162 24.8964H27.2873C27.2873 31.8145 27.2873 40.3357 27.2873 40.3357H20.8711C20.8711 40.3357 20.8711 31.9018 20.8711 24.8964H17.8193V19.4455H20.8711V15.9133C20.8711 13.3853 22.0711 9.43896 27.3472 9.43896L32.0985 9.45724V14.7519C32.0985 14.7519 29.2091 14.7519 28.6487 14.7519C28.0853 14.7519 27.2883 15.0331 27.2883 16.2352V19.4465H32.1797L31.6162 24.8964Z" fill="white"/>
</g>
<defs>
<clipPath id="clip0_250_117">
<rect width="50" height="50" fill="white"/>
</clipPath>
</defs>
</svg>
