<?xml version="1.0" encoding="utf-8"?>
<!-- Generator: Adobe Illustrator 26.2.1, SVG Export Plug-In . SVG Version: 6.00 Build 0)  -->
<svg version="1.1" id="Layer_1" xmlns="http://www.w3.org/2000/svg" xmlns:xlink="http://www.w3.org/1999/xlink" x="0px" y="0px"
	 viewBox="0 0 777 777" style="enable-background:new 0 0 777 777;" xml:space="preserve">
<style type="text/css">
	.st0{fill:#184D98;}
</style>
<g transform="translate(0.000000,777.000000) scale(0.100000,-0.100000)">
	<path class="st0" d="M3640.3,7766.8c-222.5-21.4-298.5-31-430.1-53.5C1794.7,7472.6,597.5,6424.1,169.6,5050.4
		C44.4,4646-5.9,4312.2-5.9,3878.9c0-621.6,127.3-1171.5,400.1-1722.5c199-403.3,421.5-712.5,736.1-1028.2
		c629.1-628,1417.6-1010,2312-1118c192.6-23.5,651.6-26.7,834.5-6.4c785.3,89.9,1436.9,359.5,2057.4,849.5
		c137,109.1,468.6,439.7,578.8,578.7c422.6,530.7,701.8,1151.2,807.8,1788.8c41.7,253.6,49.2,349.9,49.2,658
		c0,309.2-7.5,406.6-49.2,658c-109.1,655.8-407.6,1305.3-834.5,1820.9c-340.2,410.8-767.1,751.1-1240,991.8
		c-419.4,212.9-833.4,338.1-1316,398C4205.2,7762.5,3735.5,7776.4,3640.3,7766.8z M3320.4,6756.8l360.6-428l37.4,62.1
		c112.3,187.2,266.4,327.4,454.7,414c82.4,37.4,231.1,80.2,283.5,80.2c31,0,31,0,51.4-109.1c26.7-147.6,26.7-395.9,0-520
		c-39.6-184-117.7-360.6-225.7-507.1c-33.2-46-62.1-83.5-64.2-83.5s10.7,32.1,28.9,71.7c113.4,250.4,55.6,476.1-134.8,532.8
		c-69.5,20.3-98.4,20.3-174.4-3.2c-127.3-39.6-207.6-112.3-325.2-288.9c-40.7-62.1-73.8-116.6-73.8-122c0-72.8-515.7,414-750,708.3
		c-174.4,219.3-329.5,433.3-318.8,442.9c7.5,6.4,464.3,175.5,476.1,176.5C2953.4,7184.8,3121.4,6992.2,3320.4,6756.8z
		 M5370.3,7099.2c256.8-43.9,467.5-129.5,640.9-261.1c531.7-402.3,706.1-1211.1,474-2189c-104.8-439.7-270.7-854.8-539.2-1347
		c-39.6-73.8-54.6-129.5-34.2-129.5c18.2,0,384.1,76,874.1,181.9c277.1,59.9,593.8,127.3,705.1,150.9s214,44.9,226.8,48.1
		c23.5,6.4,24.6,4.3,18.2-56.7c-3.2-34.2-8.6-65.3-12.8-69.5c-8.6-10.7-1391.9-313.5-1702.2-373.4l-124.1-23.5l-124.1,89.9
		c-123,89.9-127.3,94.1-247.1,262.1c-130.5,185.1-272.8,369.1-402.3,523.2c-108.1,129.5-300.6,345.6-343.4,385.2
		c-18.2,18.2-42.8,44.9-54.6,59.9l-20.3,28.9l88.8,88.8c101.6,102.7,158.3,184,232.2,335.9c128.4,264.3,214,615.2,258.9,1069.9
		c15,151.9,19.3,987.5,5.3,1056c-4.3,21.4-16,41.7-26.7,46c-38.5,15-289.9,18.2-419.4,6.4c-334.9-33.2-761.8-143.4-1143.7-296.4
		c-79.2-32.1-144.4-56.7-145.5-55.6c0,2.1-21.4,28.9-47.1,59.9c-25.7,31-44.9,58.8-41.7,61c10.7,11.8,371.2,147.6,495.4,186.2
		c276,88.8,608.8,159.4,855.9,181.9C4965.8,7133.4,5226.9,7123.8,5370.3,7099.2z M2831.4,6350.3l44.9-52.4l-24.6-15
		c-13.9-8.6-93.1-54.6-176.5-102.7c-83.5-48.1-249.3-151.9-368-231.1L2090,5805.7l-48.1,36.4c-26.7,19.3-50.3,39.6-51.4,44.9
		c-4.3,10.7,133.7,112.3,307.1,229c140.2,93.1,462.2,287.8,476.1,287.8C2781.1,6403.8,2806.8,6380.3,2831.4,6350.3z M4103.5,6125.6
		c116.6-70.6,73.8-291-108.1-560.6c-55.6-83.5-71.7-139.1-71.7-255.7c0-233.2,108.1-439.7,392.6-754.3l78.1-84.5l-161.6-19.3
		l-160.5-18.2l-27.8,24.6c-82.4,77-309.2,387.3-365.9,499.6c-69.5,139.1-122,348.8-122,488.9c1.1,138,66.3,309.2,189.4,486.8
		c71.7,104.8,125.2,157.3,191.5,188.3C4005.1,6152.4,4056.4,6153.4,4103.5,6125.6z M3332.1,5890.2c56.7-20.3,61-41.7,61-353.1
		c1.1-156.2-1.1-371.2-4.3-479.3l-5.3-194.7l-102.7,74.9l-103.8,74.9l-7.5,142.3c-9.6,177.6-2.1,669.7,9.6,696.5
		c10.7,21.4,63.1,48.1,98.4,49.2C3290.4,5900.9,3315,5895.6,3332.1,5890.2z M1942.4,5776.8c27.8-21.4,50.3-39.6,50.3-40.7
		c0-2.1-55.6-48.1-123-102.7c-532.8-431.2-853.8-812-1000.3-1187.6c-49.2-127.3-80.2-160.5-153-160.5
		c-112.3,0-126.2,74.9-47.1,239.7c55.6,115.5,187.2,309.2,309.2,455.8c123,147.6,402.3,424.7,572.4,571.3
		c150.9,128.4,319.9,262.1,332.7,263.2C1888.9,5815.4,1914.5,5798.2,1942.4,5776.8z M3295.8,4790.4l93.1-68.5v-263.2
		c0-145.5,3.2-318.8,7.5-384.1l6.4-120.9H3284h-119.8v404.4c0,421.5,5.3,520,25.7,508.2C3196.3,4862.1,3243.3,4827.9,3295.8,4790.4z
		 M4711.2,4165.6c358.4-362.7,572.4-604.5,785.3-885.9c108.1-143.4,216.1-300.6,210.8-306c-8.6-8.6-289.9-36.4-296.4-28.9
		c-166.9,199-353.1,404.4-754.3,832.4c-316.7,335.9-513.5,554.2-530.7,586.3c-8.6,15-5.3,18.2,13.9,19.3c13.9,0,72.8,7.5,131.6,15
		C4478,4423.4,4429.8,4449.1,4711.2,4165.6z M4438.4,3796.5c212.9-208.6,396.9-405.5,592.7-634.4c104.8-122,212.9-266.4,204.3-275
		c-1.1-2.1-90.9-27.8-200.1-56.7c-394.8-109.1-838.8-252.5-1117-362.7c-233.2-93.1-468.6-199-492.1-223.6
		c-23.5-23.5-26.7-35.3-26.7-103.8v-77l-71.7-6.4c-126.2-12.8-157.3-9.6-172.3,13.9c-7.5,11.8-20.3,21.4-30,21.4
		c-26.7,0-208.6-99.5-199-109.1c5.3-5.3,48.1-15,96.3-21.4c68.5-9.6,122-9.6,245,0c232.2,19.3,347.7,52.4,629.1,180.8
		c406.6,185.1,551,231.1,732.9,231.1c118.8,1.1,188.3-16,249.3-58.8c24.6-17.1,32.1-19.3,46-7.5c54.6,44.9,406.6,467.5,432.2,518.9
		l17.1,33.2l66.3-93.1c36.4-52.4,66.3-97.4,66.3-101.6c0-3.2-30-43.9-66.3-88.8C4898.4,1906,4179.5,1300.5,3492.6,936.7l-122-64.2
		l-67.4,49.2l-67.4,49.2l47.1,26.7c298.5,171.2,576.7,354.1,808.8,534.9c136.9,105.9,330.6,270.7,318.8,270.7
		c-4.3,0-93.1-28.9-196.9-63.1c-567-191.5-965-257.8-1274.2-209.7c-164.8,24.6-277.1,66.3-393.7,146.6l-46,31l-63.1-54.6l-63.1-54.6
		l-76,55.6l-76,55.6l24.6,25.7c13.9,15,47.1,43.9,74.9,64.2l50.3,38.5l-46,65.3c-161.6,226.8-240.7,518.9-227.9,835.6
		c24.6,574.5,338.1,958.6,879.4,1077.4c78.1,17.1,163.7,22.5,444,30c239.7,6.4,372.3,15,428,25.7c90.9,19.3,226.8,63.1,304.9,98.4
		c28.9,13.9,59.9,24.6,67.4,24.6C4227.6,3996.6,4326,3906.7,4438.4,3796.5z M5834.6,2785.4c110.2-172.3,107-166.9,71.7-180.8
		c-133.7-52.4-200.1-73.8-206.5-66.3c-4.3,4.3-38.5,54.6-74.9,110.2c-37.4,55.6-86.7,126.2-109.1,157.3
		c-22.5,31-40.7,59.9-40.7,65.3c0,9.6,142.3,30,235.4,33.2l48.1,1.1L5834.6,2785.4z M2219.5,1569l65.3-47.1l-73.8-92
		c-85.6-104.8-162.6-249.3-180.8-340.2c-25.7-123,1.1-251.4,66.3-309.2c65.3-59.9,200.1-97.4,314.5-85.6
		c141.2,13.9,421.5,96.3,620.5,180.8l85.6,37.4l67.4-49.2l68.5-48.1l-27.8-13.9c-65.3-34.2-269.6-112.3-387.3-148.7
		c-177.6-53.5-343.4-80.2-500.7-80.2c-208.6,0-343.4,39.6-437.6,127.3c-157.3,144.4-162.6,384.1-17.1,640.9
		c53.5,93.1,238.6,295.3,258.9,282.4C2147.8,1619.3,2183.1,1594.7,2219.5,1569z"/>
	<path class="st0" d="M3058.2,3380.3c-173.3-46-335.9-210.8-451.5-457.9c-58.8-126.2-84.5-242.9-84.5-386.2
		c0-214,51.4-350.9,161.6-432.2l35.3-25.7l48.1,26.7c26.7,13.9,123,67.4,214,116.6c114.5,62.1,166.9,97.4,173.3,114.5
		c5.3,13.9,9.6,257.8,9.6,543.5v517.8l-23.5-1.1C3126.7,3396.3,3090.3,3388.9,3058.2,3380.3z"/>
	<path class="st0" d="M3399.5,2913.8c0-237.5,4.3-437.6,9.6-446.1c15-23.5,65.3-9.6,247.1,66.3c171.2,70.6,451.5,176.5,532.8,201.1
		c24.6,7.5,44.9,16,44.9,19.3s-35.3,15-78.1,24.6c-160.5,38.5-224.7,81.3-481.4,323.1c-128.4,120.9-242.9,224.7-253.6,231.1
		C3399.5,3345,3399.5,3338.6,3399.5,2913.8z"/>
</g>
</svg>
