<svg width="36" height="58" viewBox="0 0 36 58" fill="none" xmlns="http://www.w3.org/2000/svg">
<g clip-path="url(#clip0_335_43)">
<path d="M35.4487 30.6992L27.5107 18.0004C26.19 15.7801 23.9062 14.5 21.4087 14.5H14.5912C12.0915 14.5 9.80662 15.7744 8.48475 17.9086L0.548212 30.6992C-0.506476 32.3962 0.00686163 34.6323 1.69121 35.6938C3.37871 36.7558 5.60059 36.2389 6.65134 34.5395L9.90034 29.3081L9.79875 54.375C9.79875 56.3767 11.4109 58 13.3987 58C15.3866 58 16.8975 56.3767 16.8975 54.375V38.0625H18.6975V54.375C18.6975 56.3767 20.3096 58 22.2975 58C24.2854 58 25.8975 56.3767 25.8975 54.375V29.3172L29.1465 34.5508C30.0262 35.6496 31.2075 36.25 32.4 36.25C33.0504 36.25 33.7117 36.0731 34.3057 35.6996C35.9887 34.6414 36.5062 32.3984 35.4487 30.6992ZM18 10.875C20.9812 10.875 23.4 8.43945 23.4 5.4375C23.4 2.43555 20.9812 0 18 0C15.0187 0 12.6 2.43555 12.6 5.4375C12.6 8.43945 15.0187 10.875 18 10.875Z" fill="white"/>
</g>
<defs>
<clipPath id="clip0_335_43">
<rect width="36" height="58" fill="white"/>
</clipPath>
</defs>
</svg>
