<svg width="66" height="66" viewBox="0 0 66 66" fill="none" xmlns="http://www.w3.org/2000/svg">
<path d="M50.16 60.5H15.84C13.8292 60.4928 11.9029 59.6908 10.4811 58.2689C9.05923 56.8471 8.25725 54.9208 8.25 52.91V24.09C8.25725 22.0792 9.05923 20.1529 10.4811 18.7311C11.9029 17.3092 13.8292 16.5072 15.84 16.5H22C22.7293 16.5 23.4288 16.7897 23.9445 17.3055C24.4603 17.8212 24.75 18.5207 24.75 19.25C24.75 19.9793 24.4603 20.6788 23.9445 21.1945C23.4288 21.7103 22.7293 22 22 22H15.84C15.2857 22 14.7541 22.2202 14.3621 22.6121C13.9702 23.0041 13.75 23.5357 13.75 24.09V52.91C13.75 53.1845 13.8041 53.4562 13.9091 53.7098C14.0141 53.9634 14.1681 54.1938 14.3621 54.3879C14.5562 54.5819 14.7866 54.7359 15.0402 54.8409C15.2938 54.9459 15.5655 55 15.84 55H50.16C50.4345 55 50.7062 54.9459 50.9598 54.8409C51.2134 54.7359 51.4438 54.5819 51.6379 54.3879C51.8319 54.1938 51.9859 53.9634 52.0909 53.7098C52.1959 53.4562 52.25 53.1845 52.25 52.91V24.09C52.25 23.5357 52.0298 23.0041 51.6379 22.6121C51.2459 22.2202 50.7143 22 50.16 22H44C43.2707 22 42.5712 21.7103 42.0555 21.1945C41.5397 20.6788 41.25 19.9793 41.25 19.25C41.25 18.5207 41.5397 17.8212 42.0555 17.3055C42.5712 16.7897 43.2707 16.5 44 16.5H50.16C52.1708 16.5072 54.0971 17.3092 55.5189 18.7311C56.9408 20.1529 57.7428 22.0792 57.75 24.09V52.91C57.7428 54.9208 56.9408 56.8471 55.5189 58.2689C54.0971 59.6908 52.1708 60.4928 50.16 60.5Z" fill="white"/>
<path d="M33 33C30.2805 33 27.6221 32.1936 25.3609 30.6827C23.0997 29.1718 21.3374 27.0244 20.2967 24.5119C19.256 21.9994 18.9837 19.2348 19.5142 16.5675C20.0448 13.9003 21.3543 11.4503 23.2773 9.52729C25.2003 7.60432 27.6503 6.29476 30.3175 5.76421C32.9848 5.23366 35.7494 5.50596 38.2619 6.54666C40.7744 7.58737 42.9218 9.34974 44.4327 11.6109C45.9436 13.8721 46.75 16.5305 46.75 19.25C46.75 19.9794 46.4603 20.6788 45.9446 21.1945C45.4288 21.7103 44.7294 22 44 22C43.2707 22 42.5712 21.7103 42.0555 21.1945C41.5397 20.6788 41.25 19.9794 41.25 19.25C41.25 17.6183 40.7662 16.0233 39.8596 14.6666C38.9531 13.3098 37.6646 12.2524 36.1571 11.628C34.6497 11.0036 32.9909 10.8402 31.3905 11.1585C29.7902 11.4769 28.3202 12.2626 27.1664 13.4164C26.0126 14.5702 25.2269 16.0402 24.9085 17.6405C24.5902 19.2409 24.7536 20.8997 25.378 22.4071C26.0024 23.9146 27.0598 25.2031 28.4166 26.1096C29.7733 27.0162 31.3683 27.5 33 27.5C34.1226 27.4997 35.2333 27.2702 36.2641 26.8257C37.2949 26.3813 38.2242 25.7311 38.995 24.915C39.2442 24.6532 39.5425 24.443 39.8729 24.2965C40.2033 24.1499 40.5594 24.0699 40.9207 24.061C41.282 24.052 41.6416 24.1144 41.9788 24.2444C42.3161 24.3744 42.6244 24.5696 42.8863 24.8188C43.1481 25.0679 43.3583 25.3663 43.5048 25.6967C43.6513 26.0271 43.7313 26.3831 43.7403 26.7444C43.7492 27.1058 43.6869 27.4653 43.5569 27.8026C43.4269 28.1398 43.2317 28.4482 42.9825 28.71C41.6973 30.0657 40.1493 31.1453 38.433 31.8828C36.7167 32.6204 34.8681 33.0005 33 33Z" fill="white"/>
<path d="M32.9998 22C32.6379 22.0021 32.2791 21.9327 31.9441 21.7959C31.609 21.659 31.3043 21.4574 31.0473 21.2025C30.7896 20.9469 30.585 20.6427 30.4454 20.3076C30.3058 19.9725 30.2339 19.6131 30.2339 19.25C30.2339 18.887 30.3058 18.5275 30.4454 18.1924C30.585 17.8573 30.7896 17.5532 31.0473 17.2975L36.5473 11.7975C37.0652 11.2797 37.7675 10.9888 38.4998 10.9888C39.2322 10.9888 39.9345 11.2797 40.4523 11.7975C40.9702 12.3154 41.2611 13.0177 41.2611 13.75C41.2611 14.4824 40.9702 15.1847 40.4523 15.7025L34.9523 21.2025C34.6954 21.4574 34.3906 21.659 34.0556 21.7959C33.7205 21.9327 33.3618 22.0021 32.9998 22Z" fill="white"/>
</svg>
