<svg width="27" height="30" viewBox="0 0 27 30" fill="none" xmlns="http://www.w3.org/2000/svg">
<g clip-path="url(#clip0_259_72)">
<path d="M24.375 23.9062V12.6562C24.0625 13.0078 23.7256 13.3301 23.3643 13.623C20.7471 15.6348 18.667 17.2852 17.124 18.5742C16.626 18.9941 16.2207 19.3213 15.9082 19.5557C15.5957 19.79 15.1733 20.0269 14.6411 20.2661C14.1089 20.5054 13.6084 20.625 13.1396 20.625H13.125H13.1104C12.6416 20.625 12.1411 20.5054 11.6089 20.2661C11.0767 20.0269 10.6543 19.79 10.3418 19.5557C10.0293 19.3213 9.62402 18.9941 9.12598 18.5742C7.58301 17.2852 5.50293 15.6348 2.88574 13.623C2.52441 13.3301 2.1875 13.0078 1.875 12.6562V23.9062C1.875 24.0332 1.92139 24.1431 2.01416 24.2358C2.10693 24.3286 2.21679 24.375 2.34375 24.375H23.9062C24.0332 24.375 24.1431 24.3286 24.2358 24.2358C24.3286 24.1431 24.375 24.0332 24.375 23.9062ZM24.375 8.51074V8.34961V8.15186C24.375 8.15186 24.3726 8.08838 24.3677 7.96143C24.3628 7.83447 24.3482 7.77344 24.3237 7.77832C24.2993 7.7832 24.2725 7.73925 24.2432 7.64648C24.2139 7.55372 24.1699 7.51709 24.1113 7.53662C24.0527 7.55615 23.9844 7.54395 23.9062 7.5H2.34375C2.21679 7.5 2.10693 7.54639 2.01416 7.63916C1.92139 7.73193 1.875 7.84179 1.875 7.96875C1.875 9.60938 2.59277 10.9961 4.02832 12.1289C5.91309 13.6133 7.87109 15.1611 9.90234 16.7725C9.96094 16.8213 10.1318 16.9653 10.415 17.2046C10.6982 17.4438 10.9229 17.6269 11.0889 17.7539C11.2549 17.8809 11.4722 18.0347 11.7407 18.2153C12.0093 18.396 12.2559 18.5303 12.4805 18.6182C12.7051 18.7061 12.915 18.75 13.1104 18.75H13.125H13.1396C13.335 18.75 13.5449 18.7061 13.7695 18.6182C13.9941 18.5303 14.2407 18.396 14.5093 18.2153C14.7778 18.0347 14.9951 17.8809 15.1611 17.7539C15.3271 17.6269 15.5518 17.4438 15.835 17.2046C16.1182 16.9653 16.2891 16.8213 16.3477 16.7725C18.3789 15.1611 20.3369 13.6133 22.2217 12.1289C22.749 11.709 23.2397 11.145 23.6938 10.437C24.1479 9.72901 24.375 9.08691 24.375 8.51074ZM26.25 7.96875V23.9062C26.25 24.5508 26.0205 25.1025 25.5615 25.5615C25.1025 26.0205 24.5508 26.25 23.9062 26.25H2.34375C1.69922 26.25 1.14746 26.0205 0.688477 25.5615C0.229497 25.1025 0 24.5508 0 23.9062V7.96875C0 7.32422 0.229497 6.77246 0.688477 6.31348C1.14746 5.8545 1.69922 5.625 2.34375 5.625H23.9062C24.5508 5.625 25.1025 5.8545 25.5615 6.31348C26.0205 6.77246 26.25 7.32422 26.25 7.96875Z" fill="#0089ED"/>
</g>
<defs>
<clipPath id="clip0_259_72">
<rect width="26.25" height="30" fill="white"/>
</clipPath>
</defs>
</svg>
