<svg width="21" height="30" viewBox="0 0 21 30" fill="none" xmlns="http://www.w3.org/2000/svg">
<g clip-path="url(#clip0_259_74)">
<path d="M20.625 20.0391C20.625 20.3027 20.5762 20.647 20.4785 21.0718C20.3809 21.4966 20.2783 21.831 20.1709 22.0752C19.9658 22.5635 19.3701 23.0811 18.3838 23.6279C17.4658 24.126 16.5576 24.375 15.6592 24.375C15.3955 24.375 15.1392 24.3579 14.8901 24.3237C14.6411 24.2896 14.3603 24.2285 14.0479 24.1406C13.7354 24.0527 13.5034 23.9819 13.3521 23.9282C13.2007 23.8745 12.9297 23.7744 12.5391 23.6279C12.1484 23.4814 11.9092 23.3936 11.8213 23.3643C10.8643 23.0225 10.0098 22.6172 9.25781 22.1484C8.00782 21.3769 6.71631 20.3247 5.3833 18.9917C4.05029 17.6587 2.99805 16.3672 2.22656 15.1172C1.75781 14.3652 1.35253 13.5107 1.01074 12.5537C0.981445 12.4658 0.893555 12.2266 0.74707 11.8359C0.600586 11.4453 0.500493 11.1743 0.446777 11.0229C0.393062 10.8716 0.322266 10.6396 0.234375 10.3271C0.146484 10.0147 0.0854443 9.73389 0.0512695 9.48486C0.0170947 9.23584 0 8.97949 0 8.71582C0 7.81739 0.249023 6.90918 0.74707 5.99121C1.29394 5.00489 1.81153 4.40918 2.2998 4.2041C2.54395 4.09668 2.87842 3.99415 3.30322 3.89648C3.72803 3.79882 4.07227 3.75 4.33594 3.75C4.47265 3.75 4.57519 3.76465 4.64355 3.79395C4.81934 3.85254 5.07813 4.22363 5.41992 4.90723C5.52734 5.09278 5.67382 5.35645 5.85938 5.69824C6.04493 6.04003 6.21582 6.3501 6.37207 6.62842C6.52833 6.90674 6.67969 7.16796 6.82617 7.41211C6.85547 7.45118 6.94091 7.57324 7.08252 7.77832C7.22413 7.9834 7.3291 8.15673 7.39746 8.29834C7.46583 8.43995 7.5 8.57911 7.5 8.71582C7.5 8.91113 7.36084 9.15527 7.08252 9.44824C6.8042 9.74121 6.50146 10.0098 6.17432 10.2539C5.84717 10.4981 5.54443 10.7568 5.26611 11.0303C4.98779 11.3037 4.84863 11.5283 4.84863 11.7041C4.84863 11.792 4.87305 11.9019 4.92188 12.0337C4.9707 12.1655 5.01221 12.2656 5.04639 12.334C5.08056 12.4023 5.14893 12.5195 5.25146 12.6855C5.354 12.8516 5.41015 12.9443 5.41992 12.9639C6.16211 14.3018 7.01172 15.4492 7.96875 16.4062C8.92578 17.3633 10.0732 18.2129 11.4111 18.9551C11.4307 18.9648 11.5234 19.021 11.6895 19.1235C11.8555 19.2261 11.9727 19.2944 12.041 19.3286C12.1094 19.3628 12.2095 19.4043 12.3413 19.4531C12.4731 19.5019 12.583 19.5264 12.6709 19.5264C12.8467 19.5264 13.0713 19.3872 13.3447 19.1089C13.6182 18.8306 13.8769 18.5278 14.1211 18.2007C14.3652 17.8735 14.6338 17.5708 14.9268 17.2925C15.2197 17.0142 15.4639 16.875 15.6592 16.875C15.7959 16.875 15.9351 16.9092 16.0767 16.9775C16.2183 17.0459 16.3916 17.1509 16.5967 17.2925C16.8018 17.4341 16.9238 17.5195 16.9629 17.5488C17.207 17.6953 17.4683 17.8467 17.7466 18.0029C18.0249 18.1592 18.335 18.3301 18.6768 18.5156C19.0185 18.7012 19.2822 18.8477 19.4678 18.9551C20.1514 19.2969 20.5225 19.5557 20.5811 19.7314C20.6104 19.7998 20.625 19.9023 20.625 20.0391Z" fill="#0089ED"/>
</g>
<defs>
<clipPath id="clip0_259_74">
<rect width="20.625" height="30" fill="white"/>
</clipPath>
</defs>
</svg>
