<svg width="15" height="30" viewBox="0 0 15 30" fill="none" xmlns="http://www.w3.org/2000/svg">
<path d="M11.25 11.25C11.25 10.2148 10.8838 9.33105 10.1514 8.59863C9.41895 7.86621 8.53516 7.5 7.5 7.5C6.46484 7.5 5.58105 7.86621 4.84863 8.59863C4.11621 9.33105 3.75 10.2148 3.75 11.25C3.75 12.2852 4.11621 13.1689 4.84863 13.9014C5.58105 14.6338 6.46484 15 7.5 15C8.53516 15 9.41895 14.6338 10.1514 13.9014C10.8838 13.1689 11.25 12.2852 11.25 11.25ZM15 11.25C15 12.3145 14.8389 13.1885 14.5166 13.8721L9.18457 25.21C9.02832 25.5322 8.79639 25.7861 8.48877 25.9717C8.18115 26.1572 7.85156 26.25 7.5 26.25C7.14844 26.25 6.81885 26.1572 6.51123 25.9717C6.20361 25.7861 5.97656 25.5322 5.83008 25.21L0.483398 13.8721C0.161133 13.1885 0 12.3145 0 11.25C0 9.17969 0.732422 7.41211 2.19727 5.94727C3.66211 4.48242 5.42969 3.75 7.5 3.75C9.57031 3.75 11.3379 4.48242 12.8027 5.94727C14.2676 7.41211 15 9.17969 15 11.25Z" fill="#0089ED"/>
</svg>
