<svg width="23" height="30" viewBox="0 0 23 30" fill="none" xmlns="http://www.w3.org/2000/svg">
<g clip-path="url(#clip0_259_76)">
<path d="M11.25 3.75C13.291 3.75 15.1733 4.25292 16.897 5.25879C18.6206 6.26465 19.9853 7.62939 20.9912 9.35303C21.9971 11.0767 22.5 12.959 22.5 15C22.5 17.041 21.9971 18.9233 20.9912 20.647C19.9853 22.3706 18.6206 23.7353 16.897 24.7412C15.1733 25.7471 13.291 26.25 11.25 26.25C9.20899 26.25 7.32666 25.7471 5.60303 24.7412C3.87939 23.7353 2.51465 22.3706 1.50879 20.647C0.502925 18.9233 0 17.041 0 15C0 12.959 0.502925 11.0767 1.50879 9.35303C2.51465 7.62939 3.87939 6.26465 5.60303 5.25879C7.32666 4.25292 9.20899 3.75 11.25 3.75ZM15.2637 11.3818C15.2441 11.3916 15.1978 11.438 15.1245 11.521C15.0513 11.604 14.9854 11.6504 14.9268 11.6602C14.9463 11.6602 14.9683 11.6357 14.9927 11.5869C15.0171 11.5381 15.0415 11.4844 15.0659 11.4258C15.0903 11.3672 15.1074 11.333 15.1172 11.3232C15.1758 11.2549 15.2832 11.1816 15.4395 11.1035C15.5762 11.0449 15.8301 10.9863 16.2012 10.9277C16.5332 10.8496 16.7822 10.9033 16.9482 11.0889C16.9287 11.0693 16.9751 11.0059 17.0874 10.8984C17.1997 10.791 17.2705 10.7324 17.2998 10.7227C17.3291 10.7031 17.4023 10.6812 17.5195 10.6567C17.6367 10.6323 17.71 10.5957 17.7393 10.5469L17.7686 10.2246C17.6514 10.2344 17.5659 10.2002 17.5122 10.1221C17.4585 10.044 17.4268 9.94141 17.417 9.81445C17.417 9.83398 17.3877 9.87305 17.3291 9.93164C17.3291 9.86328 17.3071 9.82422 17.2632 9.81445C17.2192 9.80468 17.1631 9.80958 17.0947 9.8291C17.0264 9.84863 16.9824 9.85352 16.9629 9.84375C16.8652 9.81445 16.792 9.77783 16.7432 9.73389C16.6943 9.68994 16.6553 9.60938 16.626 9.49219C16.5967 9.375 16.5772 9.30176 16.5674 9.27246C16.5479 9.22364 16.5015 9.17237 16.4282 9.11865C16.355 9.06494 16.3086 9.01367 16.2891 8.96484C16.2793 8.94532 16.2671 8.91845 16.2524 8.88428C16.2378 8.8501 16.2231 8.81836 16.2085 8.78906C16.1938 8.75977 16.1743 8.73291 16.1499 8.7085C16.1255 8.68408 16.0986 8.67188 16.0693 8.67188C16.04 8.67188 16.0059 8.69629 15.9668 8.74512C15.9277 8.79394 15.8911 8.84278 15.8569 8.8916C15.8228 8.94042 15.8008 8.96484 15.791 8.96484C15.7617 8.94532 15.7324 8.93799 15.7031 8.94287C15.6738 8.94775 15.6519 8.95264 15.6372 8.95752C15.6226 8.9624 15.6006 8.97705 15.5713 9.00146C15.542 9.02588 15.5176 9.04296 15.498 9.05273C15.4688 9.07226 15.4273 9.08691 15.3735 9.09668C15.3198 9.10645 15.2783 9.11621 15.249 9.12598C15.3955 9.07715 15.3906 9.02344 15.2344 8.96484C15.1367 8.92578 15.0586 8.91113 15 8.9209C15.0879 8.88183 15.1245 8.82324 15.1099 8.74512C15.0952 8.667 15.0537 8.59863 14.9854 8.54004H15.0586C15.0488 8.50097 15.0073 8.45947 14.9341 8.41553C14.8608 8.37158 14.7754 8.33008 14.6777 8.29102C14.5801 8.25195 14.5166 8.22265 14.4873 8.20312C14.4092 8.1543 14.2432 8.10791 13.9893 8.06396C13.7354 8.02002 13.5742 8.01757 13.5059 8.05664C13.457 8.11523 13.4351 8.1665 13.4399 8.21045C13.4448 8.25439 13.4644 8.32276 13.4985 8.41553C13.5327 8.5083 13.5498 8.56934 13.5498 8.59863C13.5596 8.65723 13.5327 8.7207 13.4692 8.78906C13.4058 8.85743 13.374 8.91602 13.374 8.96484C13.374 9.03321 13.4424 9.10888 13.5791 9.19189C13.7158 9.27491 13.7647 9.37988 13.7256 9.50684C13.6963 9.58496 13.6182 9.66309 13.4912 9.74121C13.3643 9.81933 13.2861 9.87792 13.2568 9.91699C13.208 9.99511 13.2007 10.0854 13.2349 10.188C13.269 10.2905 13.3203 10.3711 13.3887 10.4297C13.4082 10.4492 13.4155 10.4688 13.4106 10.4883C13.4058 10.5078 13.3887 10.5298 13.3594 10.5542C13.3301 10.5786 13.3032 10.5981 13.2788 10.6128C13.2544 10.6274 13.2227 10.6445 13.1836 10.6641L13.1396 10.6934C13.0322 10.7422 12.9321 10.7129 12.8394 10.6055C12.7466 10.4981 12.6807 10.3711 12.6416 10.2246C12.5732 9.98046 12.4951 9.83398 12.4072 9.78516C12.1826 9.70704 12.041 9.71191 11.9824 9.7998C11.9336 9.67285 11.7334 9.5459 11.3818 9.41895C11.1377 9.33105 10.8545 9.31153 10.5322 9.36035C10.5908 9.35058 10.5908 9.27734 10.5322 9.14062C10.4639 8.99414 10.3711 8.93555 10.2539 8.96484C10.2832 8.90625 10.3027 8.82081 10.3125 8.7085C10.3223 8.59619 10.3271 8.53027 10.3271 8.51074C10.3564 8.38378 10.415 8.27149 10.5029 8.17383C10.5127 8.16406 10.5469 8.12256 10.6055 8.04932C10.6641 7.97607 10.7105 7.91016 10.7446 7.85156C10.7788 7.79297 10.7812 7.76367 10.752 7.76367C11.0937 7.80274 11.3379 7.74902 11.4844 7.60254C11.5332 7.55372 11.5894 7.4707 11.6528 7.35352C11.7163 7.23633 11.7676 7.15332 11.8066 7.10449C11.8945 7.0459 11.9629 7.01905 12.0117 7.02393C12.0605 7.0288 12.1314 7.05567 12.2241 7.10449C12.3169 7.15332 12.3877 7.17773 12.4365 7.17773C12.5732 7.1875 12.6489 7.13379 12.6636 7.0166C12.6782 6.89941 12.6416 6.80175 12.5537 6.72363C12.6709 6.7334 12.6855 6.65039 12.5977 6.47461C12.5488 6.40625 12.5098 6.3623 12.4805 6.34277C12.3633 6.30371 12.2314 6.32812 12.085 6.41602C12.0068 6.45508 12.0166 6.49414 12.1143 6.5332C12.1045 6.52343 12.0581 6.5747 11.9751 6.68701C11.8921 6.79932 11.8115 6.88477 11.7334 6.94336C11.6553 7.00195 11.5771 6.97753 11.499 6.87012C11.4893 6.86035 11.4624 6.79443 11.4185 6.67236C11.3745 6.5503 11.3281 6.48438 11.2793 6.47461C11.2012 6.47461 11.123 6.54785 11.0449 6.69434C11.0742 6.61622 11.0205 6.54297 10.8838 6.47461C10.7471 6.40625 10.6299 6.36719 10.5322 6.35742C10.7178 6.24023 10.6787 6.1084 10.415 5.96191C10.3467 5.92285 10.2466 5.89844 10.1147 5.88867C9.98291 5.8789 9.8877 5.89844 9.8291 5.94727C9.78028 6.01563 9.75341 6.07178 9.74854 6.11572C9.74366 6.15967 9.76806 6.19874 9.82178 6.23291C9.87549 6.26709 9.92676 6.29395 9.97559 6.31348C10.0244 6.333 10.0806 6.35254 10.144 6.37207C10.2075 6.3916 10.249 6.40625 10.2686 6.41602C10.4053 6.51368 10.4443 6.58203 10.3857 6.62109C10.3662 6.63086 10.3247 6.64794 10.2612 6.67236C10.1978 6.69678 10.1416 6.71875 10.0928 6.73828C10.044 6.75781 10.0147 6.77735 10.0049 6.79688C9.97559 6.83594 9.97559 6.90429 10.0049 7.00195C10.0342 7.09961 10.0244 7.16796 9.97559 7.20703C9.92676 7.15821 9.88282 7.07275 9.84375 6.95068C9.80468 6.82862 9.77051 6.74805 9.74121 6.70898C9.80958 6.79688 9.6875 6.82617 9.375 6.79688L9.22852 6.78223C9.18945 6.78223 9.11133 6.792 8.99414 6.81152C8.87695 6.83105 8.77686 6.83594 8.69385 6.82617C8.61084 6.8164 8.54492 6.77735 8.49609 6.70898C8.45703 6.63086 8.45703 6.5332 8.49609 6.41602C8.50586 6.37695 8.52539 6.36719 8.55469 6.38672C8.51562 6.35742 8.46192 6.31103 8.39355 6.24756C8.32519 6.18409 8.27637 6.14257 8.24707 6.12305C7.79785 6.26953 7.33887 6.46973 6.87012 6.72363C6.92871 6.7334 6.9873 6.72851 7.0459 6.70898C7.09472 6.68946 7.15821 6.65771 7.23633 6.61377C7.31445 6.56982 7.36329 6.54297 7.38281 6.5332C7.71485 6.39649 7.91993 6.3623 7.99805 6.43066L8.07129 6.35742C8.208 6.51368 8.30566 6.63574 8.36426 6.72363C8.29589 6.68457 8.14941 6.67969 7.9248 6.70898C7.7295 6.76758 7.62207 6.82617 7.60254 6.88477C7.6709 7.00195 7.69531 7.08984 7.67578 7.14844C7.63671 7.11914 7.58057 7.07032 7.50732 7.00195C7.43408 6.93359 7.36329 6.87989 7.29492 6.84082C7.22656 6.80175 7.15332 6.77735 7.0752 6.76758C6.91894 6.76758 6.81152 6.77246 6.75293 6.78223C5.32715 7.56347 4.17968 8.64746 3.31055 10.0342C3.37891 10.1025 3.4375 10.1416 3.48633 10.1514C3.5254 10.1611 3.5498 10.2051 3.55957 10.2832C3.56934 10.3613 3.58154 10.415 3.59619 10.4443C3.61084 10.4736 3.66699 10.459 3.76465 10.4004C3.85254 10.4785 3.86719 10.5713 3.80859 10.6787C3.81836 10.6689 4.0332 10.8008 4.45312 11.0742C4.63868 11.2402 4.74122 11.3428 4.76074 11.3818C4.79004 11.4893 4.74122 11.5771 4.61426 11.6455C4.60449 11.626 4.56054 11.582 4.48242 11.5137C4.4043 11.4453 4.36036 11.4258 4.35059 11.4551C4.32129 11.5039 4.32374 11.5942 4.35791 11.7261C4.39209 11.8579 4.44335 11.919 4.51172 11.9092C4.44335 11.9092 4.39698 11.9873 4.37256 12.1436C4.34814 12.2998 4.33594 12.4731 4.33594 12.6636C4.33594 12.854 4.33106 12.9687 4.32129 13.0078L4.35059 13.0225C4.32129 13.1396 4.34814 13.3081 4.43115 13.5278C4.51416 13.7476 4.61914 13.8428 4.74609 13.8135C4.61914 13.8428 4.7168 14.0527 5.03906 14.4434C5.09766 14.5215 5.13672 14.5654 5.15625 14.5752C5.18555 14.5947 5.24414 14.6313 5.33203 14.6851C5.41992 14.7388 5.49316 14.7876 5.55176 14.8315C5.61035 14.8755 5.65917 14.9268 5.69824 14.9854C5.73731 15.0342 5.78613 15.144 5.84473 15.3149C5.90332 15.4858 5.97168 15.6006 6.0498 15.6592C6.03028 15.7178 6.07666 15.8154 6.18896 15.9521C6.30127 16.0889 6.35254 16.2012 6.34277 16.2891C6.333 16.2891 6.3208 16.2939 6.30615 16.3037C6.2915 16.3135 6.2793 16.3184 6.26953 16.3184C6.29883 16.3867 6.37452 16.4551 6.49658 16.5234C6.61865 16.5918 6.69434 16.6553 6.72363 16.7139C6.7334 16.7432 6.74316 16.792 6.75293 16.8604C6.7627 16.9287 6.77735 16.9824 6.79688 17.0215C6.8164 17.0606 6.85547 17.0703 6.91406 17.0508C6.93359 16.8555 6.8164 16.5527 6.5625 16.1426C6.41602 15.8984 6.333 15.7568 6.31348 15.7178C6.28418 15.669 6.25733 15.5933 6.23291 15.4907C6.20849 15.3882 6.18652 15.3174 6.16699 15.2783C6.18652 15.2783 6.21582 15.2856 6.25488 15.3003C6.29395 15.3149 6.33545 15.332 6.37939 15.3516C6.42334 15.3711 6.45996 15.3906 6.48926 15.4102C6.51855 15.4297 6.52833 15.4443 6.51855 15.4541C6.48926 15.5225 6.49903 15.6079 6.54785 15.7104C6.59667 15.813 6.65527 15.9033 6.72363 15.9814C6.792 16.0596 6.875 16.1523 6.97266 16.2598C7.07032 16.3672 7.12891 16.4307 7.14844 16.4502C7.20703 16.5088 7.2754 16.604 7.35352 16.7358C7.43164 16.8677 7.43164 16.9336 7.35352 16.9336C7.44141 16.9336 7.53907 16.9824 7.64648 17.0801C7.7539 17.1777 7.83691 17.2754 7.89551 17.373C7.94433 17.4512 7.9834 17.5781 8.0127 17.7539C8.04199 17.9297 8.06641 18.0469 8.08594 18.1055C8.10546 18.1738 8.14698 18.2398 8.21045 18.3032C8.27392 18.3667 8.33496 18.4131 8.39355 18.4424L8.62793 18.5596C8.62793 18.5596 8.6914 18.5937 8.81836 18.6621C8.86718 18.6816 8.95752 18.7329 9.08936 18.8159C9.22119 18.8989 9.32618 18.9551 9.4043 18.9844C9.50196 19.0234 9.58008 19.043 9.63867 19.043C9.69727 19.043 9.76806 19.0308 9.85107 19.0063C9.93409 18.9819 10 18.9648 10.0488 18.9551C10.1953 18.9356 10.3369 19.0088 10.4736 19.1748C10.6103 19.3408 10.7129 19.4434 10.7812 19.4824C11.1328 19.668 11.4014 19.7217 11.5869 19.6436C11.5674 19.6533 11.5698 19.6899 11.5942 19.7534C11.6187 19.8169 11.6577 19.8926 11.7114 19.9805C11.7651 20.0684 11.8091 20.1392 11.8433 20.1929C11.8774 20.2466 11.9043 20.2881 11.9238 20.3174C11.9727 20.376 12.0605 20.4492 12.1875 20.5371C12.3145 20.625 12.4023 20.6982 12.4512 20.7568C12.5098 20.7178 12.5439 20.6738 12.5537 20.625C12.5244 20.7031 12.5586 20.8008 12.6562 20.918C12.7539 21.0352 12.8418 21.084 12.9199 21.0645C13.0566 21.0352 13.125 20.8789 13.125 20.5957C12.8223 20.7422 12.583 20.6543 12.4072 20.332C12.4072 20.3223 12.395 20.2954 12.3706 20.2515C12.3462 20.2075 12.3267 20.166 12.312 20.127C12.2974 20.0879 12.2852 20.0464 12.2754 20.0024C12.2656 19.9585 12.2656 19.9219 12.2754 19.8926C12.2852 19.8633 12.3096 19.8486 12.3486 19.8486C12.4365 19.8486 12.4853 19.8315 12.4951 19.7974C12.5049 19.7632 12.4951 19.7021 12.4658 19.6143C12.4365 19.5264 12.417 19.4629 12.4072 19.4238C12.3975 19.3457 12.3438 19.248 12.2461 19.1309C12.1484 19.0137 12.0898 18.9404 12.0703 18.9111C12.0215 18.999 11.9434 19.0381 11.8359 19.0283C11.7285 19.0185 11.6504 18.9746 11.6016 18.8965C11.6016 18.9063 11.5942 18.9331 11.5796 18.9771C11.5649 19.021 11.5576 19.0527 11.5576 19.0723C11.4307 19.0723 11.3574 19.0674 11.3379 19.0576C11.3477 19.0283 11.3599 18.9429 11.3745 18.8013C11.3892 18.6597 11.4063 18.5498 11.4258 18.4717C11.4356 18.4326 11.4624 18.374 11.5063 18.2959C11.5503 18.2178 11.5869 18.147 11.6162 18.0835C11.6455 18.02 11.665 17.959 11.6748 17.9004C11.6846 17.8418 11.6626 17.7954 11.6089 17.7612C11.5552 17.7271 11.4697 17.7148 11.3525 17.7246C11.167 17.7344 11.04 17.832 10.9717 18.0176C10.9619 18.0469 10.9473 18.0981 10.9277 18.1714C10.9082 18.2446 10.8838 18.3008 10.8545 18.3398C10.8252 18.3789 10.7812 18.4131 10.7227 18.4424C10.6543 18.4717 10.5371 18.4815 10.3711 18.4717C10.2051 18.4619 10.0879 18.4375 10.0195 18.3984C9.89257 18.3203 9.78271 18.1787 9.68994 17.9736C9.59717 17.7686 9.55078 17.5879 9.55078 17.4316C9.55078 17.334 9.56298 17.2046 9.5874 17.0435C9.61182 16.8823 9.62647 16.7603 9.63135 16.6772C9.63623 16.5942 9.60938 16.4746 9.55078 16.3184C9.58008 16.2988 9.62402 16.2524 9.68262 16.1792C9.74121 16.106 9.79003 16.0547 9.8291 16.0254C9.84863 16.0156 9.8706 16.0083 9.89502 16.0034C9.91944 15.9985 9.94141 15.9985 9.96094 16.0034C9.98046 16.0083 10 16.001 10.0195 15.9814C10.0391 15.9619 10.0537 15.9326 10.0635 15.8936C10.0537 15.8838 10.0342 15.8691 10.0049 15.8496C9.97559 15.8203 9.95606 15.8057 9.94629 15.8057C10.0147 15.835 10.1538 15.8276 10.3638 15.7837C10.5737 15.7397 10.708 15.7471 10.7666 15.8057C10.9131 15.9131 11.0205 15.9033 11.0889 15.7764C11.0889 15.7666 11.0767 15.7202 11.0522 15.6372C11.0278 15.5542 11.0254 15.4883 11.0449 15.4395C11.0937 15.7031 11.2354 15.7471 11.4697 15.5713C11.499 15.6006 11.5747 15.625 11.6968 15.6445C11.8188 15.6641 11.9043 15.6885 11.9531 15.7178C11.9824 15.7373 12.0166 15.7642 12.0557 15.7983C12.0947 15.8325 12.1216 15.8545 12.1362 15.8643C12.1509 15.874 12.1753 15.8716 12.2095 15.8569C12.2436 15.8423 12.2852 15.8105 12.334 15.7617C12.4316 15.8984 12.4902 16.0156 12.5098 16.1133C12.6172 16.5039 12.71 16.7187 12.7881 16.7578C12.8565 16.7871 12.9102 16.7969 12.9492 16.7871C12.9883 16.7773 13.0103 16.731 13.0151 16.6479C13.02 16.5649 13.02 16.4966 13.0151 16.4429C13.0103 16.3892 13.0029 16.3281 12.9932 16.2598L12.9785 16.1426V15.8789L12.9639 15.7617C12.8174 15.7324 12.727 15.6738 12.6929 15.5859C12.6587 15.498 12.666 15.4077 12.7148 15.3149C12.7637 15.2222 12.8369 15.1318 12.9346 15.0439C12.9443 15.0342 12.9834 15.0171 13.0518 14.9927C13.1201 14.9683 13.1958 14.9365 13.2788 14.8975C13.3618 14.8584 13.4228 14.8193 13.4619 14.7803C13.667 14.5947 13.7402 14.4238 13.6816 14.2676C13.75 14.2676 13.8037 14.2236 13.8428 14.1357C13.833 14.1357 13.8086 14.1211 13.7695 14.0918C13.7305 14.0625 13.6938 14.0381 13.6597 14.0186C13.6255 13.999 13.6035 13.9893 13.5938 13.9893C13.6816 13.9404 13.6914 13.8623 13.623 13.7549C13.6719 13.7256 13.7085 13.6719 13.7329 13.5938C13.7573 13.5156 13.794 13.4668 13.8428 13.4473C13.9307 13.5645 14.0332 13.5742 14.1504 13.4766C14.2188 13.3984 14.2236 13.3203 14.165 13.2422C14.2139 13.1738 14.314 13.1226 14.4653 13.0884C14.6167 13.0542 14.707 13.0078 14.7363 12.9492C14.8047 12.9687 14.8437 12.959 14.8535 12.9199C14.8633 12.8809 14.8682 12.8223 14.8682 12.7441C14.8682 12.666 14.8828 12.6074 14.9121 12.5684C14.9512 12.5195 15.0244 12.4756 15.1318 12.4365C15.2393 12.3975 15.3027 12.3731 15.3223 12.3633L15.5713 12.2021C15.6006 12.1631 15.6006 12.1436 15.5713 12.1436C15.7471 12.1631 15.8984 12.1094 16.0254 11.9824C16.1231 11.875 16.0938 11.7773 15.9375 11.6895C15.9668 11.6309 15.9521 11.5845 15.8936 11.5503C15.835 11.5161 15.7617 11.4893 15.6738 11.4697C15.7031 11.46 15.7593 11.4575 15.8423 11.4624C15.9253 11.4673 15.9766 11.46 15.9961 11.4404C16.1426 11.3428 16.1084 11.2646 15.8936 11.2061C15.7275 11.1572 15.5176 11.2158 15.2637 11.3818ZM12.876 24.2285C14.8877 23.877 16.6016 22.9541 18.0176 21.46C17.9883 21.4307 17.9272 21.4087 17.8345 21.394C17.7417 21.3794 17.6807 21.3623 17.6514 21.3428C17.4756 21.2744 17.3584 21.2354 17.2998 21.2256C17.3096 21.1572 17.2974 21.0938 17.2632 21.0352C17.229 20.9766 17.1899 20.9326 17.146 20.9033C17.1021 20.874 17.041 20.835 16.9629 20.7861C16.8848 20.7373 16.8311 20.7031 16.8018 20.6836C16.7822 20.6641 16.748 20.6348 16.6992 20.5957C16.6504 20.5566 16.6162 20.5298 16.5967 20.5151C16.5772 20.5005 16.5405 20.4785 16.4868 20.4492C16.4331 20.4199 16.3916 20.4102 16.3623 20.4199C16.333 20.4297 16.2842 20.4346 16.2158 20.4346L16.1719 20.4492C16.1426 20.459 16.1157 20.4712 16.0913 20.4858C16.0669 20.5005 16.04 20.5151 16.0107 20.5298C15.9814 20.5444 15.9619 20.5591 15.9521 20.5737C15.9424 20.5884 15.9424 20.6006 15.9521 20.6104C15.7471 20.4443 15.5713 20.3369 15.4248 20.2881C15.376 20.2783 15.3223 20.2515 15.2637 20.2075C15.2051 20.1636 15.1538 20.1294 15.1099 20.105C15.0659 20.0806 15.0171 20.0732 14.9634 20.083C14.9097 20.0928 14.8535 20.127 14.7949 20.1855C14.7461 20.2344 14.7168 20.3076 14.707 20.4053C14.6973 20.5029 14.6875 20.5664 14.6777 20.5957C14.6094 20.5469 14.6094 20.4614 14.6777 20.3394C14.7461 20.2173 14.7559 20.127 14.707 20.0684C14.6777 20.0098 14.6265 19.9878 14.5532 20.0024C14.48 20.0171 14.4214 20.0391 14.3774 20.0684C14.3335 20.0977 14.2773 20.1392 14.209 20.1929C14.1406 20.2466 14.0967 20.2783 14.0771 20.2881C14.0576 20.2979 14.0161 20.3247 13.9526 20.3687C13.8892 20.4126 13.8477 20.4492 13.8281 20.4785C13.7988 20.5176 13.7695 20.5762 13.7402 20.6543C13.7109 20.7324 13.6865 20.7861 13.667 20.8154C13.6475 20.7764 13.5913 20.7446 13.4985 20.7202C13.4058 20.6958 13.3594 20.6689 13.3594 20.6396C13.3789 20.7373 13.3984 20.9082 13.418 21.1523C13.4375 21.3965 13.4619 21.582 13.4912 21.709C13.5596 22.0117 13.501 22.2461 13.3154 22.4121C13.0518 22.6563 12.9102 22.8516 12.8906 22.998C12.8516 23.2129 12.9102 23.3398 13.0664 23.3789C13.0664 23.4473 13.0273 23.5474 12.9492 23.6792C12.8711 23.811 12.8369 23.916 12.8467 23.9941C12.8467 24.0527 12.8565 24.1309 12.876 24.2285Z" fill="#0089ED"/>
</g>
<defs>
<clipPath id="clip0_259_76">
<rect width="22.5" height="30" fill="white"/>
</clipPath>
</defs>
</svg>
